<?xml version="1.0" encoding="UTF-8"?>
<svg id="Calque_1" data-name="Calque 1" xmlns="http://www.w3.org/2000/svg" viewBox="0 0 207.32 213.83">
  <defs>
    <style>
      .cls-1 {
        fill: #fff;
      }

      .cls-2 {
        fill: #0041d4;
      }

      .cls-3 {
        stroke-width: 4px;
      }

      .cls-3, .cls-4 {
        fill: none;
        stroke: #0041d4;
        stroke-miterlimit: 10;
      }

      .cls-4 {
        stroke-width: 2px;
      }
    </style>
  </defs>
  <rect class="cls-1" width="207.32" height="203.74" rx="14.48" ry="14.48"/>
  <g>
    <ellipse class="cls-3" cx="103.66" cy="101.87" rx="83.19" ry="80.9"/>
    <polygon class="cls-4" points="103.66 51.91 117.72 80.41 149.17 84.98 126.42 107.16 131.79 138.48 103.66 123.69 75.53 138.48 80.9 107.16 58.15 84.98 89.6 80.41 103.66 51.91"/>
    <path class="cls-2" d="m103.66,32.9c-38.09,0-68.98,30.88-68.98,68.98s30.88,68.98,68.98,68.98,68.98-30.88,68.98-68.98-30.88-68.98-68.98-68.98Zm40.03,123.9l-40.03-21.05-40.03,21.05,7.65-44.57-32.38-31.57,44.75-6.5,20.02-40.55,20.02,40.55,44.75,6.5-32.38,31.57,7.65,44.57Z"/>
  </g>
</svg>