<svg width="40" height="35" viewBox="0 0 40 35" fill="none" xmlns="http://www.w3.org/2000/svg">
<path fill-rule="evenodd" clip-rule="evenodd" d="M6 34.6667C4.4087 34.6667 2.88258 33.9818 1.75736 32.7629C0.632141 31.5439 0 29.8906 0 28.1667V6.5C0 4.77609 0.632141 3.12279 1.75736 1.90381C2.88258 0.68482 4.4087 0 6 0H34C35.5913 0 37.1174 0.68482 38.2426 1.90381C39.3679 3.12279 40 4.77609 40 6.5V28.1667C40 29.8906 39.3679 31.5439 38.2426 32.7629C37.1174 33.9818 35.5913 34.6667 34 34.6667H6ZM11.25 9.14333C11.0463 8.95487 10.8097 8.81267 10.5542 8.72517C10.2988 8.63767 10.0297 8.60666 9.76302 8.63398C9.49631 8.6613 9.23738 8.74638 9.00161 8.88419C8.76584 9.022 8.55802 9.20972 8.3905 9.4362C8.22298 9.66269 8.09917 9.92332 8.02642 10.2026C7.95367 10.482 7.93346 10.7743 7.96699 11.0622C8.00052 11.3502 8.08711 11.6279 8.22162 11.8789C8.35612 12.1299 8.53581 12.349 8.75 12.5233L16.25 19.0255C17.3142 19.9485 18.6368 20.4514 20 20.4514C21.3632 20.4514 22.6858 19.9485 23.75 19.0255L31.25 12.5255C31.4551 12.3477 31.6259 12.1278 31.7526 11.8785C31.8793 11.6291 31.9594 11.3552 31.9884 11.0723C32.0174 10.7895 31.9946 10.5032 31.9215 10.2298C31.8483 9.95645 31.7262 9.70138 31.562 9.47917C31.3978 9.25695 31.1949 9.07193 30.9647 8.93468C30.7346 8.79743 30.4817 8.71064 30.2206 8.67925C29.9595 8.64786 29.6952 8.6725 29.4429 8.75176C29.1906 8.83101 28.9551 8.96333 28.75 9.14117L21.25 15.6412C20.8953 15.9488 20.4544 16.1165 20 16.1165C19.5456 16.1165 19.1047 15.9488 18.75 15.6412L11.25 9.14117V9.14333Z" fill="#FFA901"/>
</svg>
